<svg width="180" height="48" viewBox="0 0 180 48" fill="none" xmlns="http://www.w3.org/2000/svg">
  <rect width="180" height="48" rx="12" fill="#0F172A"/>
  <path d="M21 12L10 24H21L19 32L31 20H20L22 12H21Z" fill="#EF4444"/>
  <path d="M40 16H44L52 32H48L46 28H40L38 32H34L42 16ZM44 24L42 20L40 24H44Z" fill="#F8FAFC"/>
  <path d="M59 16H63V32H59V16Z" fill="#F8FAFC"/>
  <path d="M72 16H76V32H72V16Z" fill="#F8FAFC"/>
  <path d="M84 16H91C95 16 98 18 98 22C98 24 97 25 95 26.5C96.5 27.5 97.5 29 97.5 31C97.5 35 94 38 90 38H84V16ZM88 27.5C90.5 27.5 92 26 92 23.5C92 21 90.5 19.5 88 19.5H86V27.5H88Z" fill="#F8FAFC"/>
  <path d="M108 16H114L122 30V16H126V32H122L114 18V32H108V16Z" fill="#F8FAFC"/>
  <path d="M132 16H136L144 34V16H148V32H144L136 16H132Z" fill="#F8FAFC"/>
  <path d="M160 16H168C172 16 176 18 176 22C176 27 171 27 168 27H164V32H160V16ZM168 22C168 20 166 19 164 19H162V25H164C166 25 168 24 168 22Z" fill="#F8FAFC"/>
</svg>
